<?xml version="1.0" encoding="utf-8"?>
<!-- Generator: Adobe Illustrator 26.3.1, SVG Export Plug-In . SVG Version: 6.00 Build 0)  -->
<svg version="1.1" id="Layer_1" xmlns="http://www.w3.org/2000/svg" xmlns:xlink="http://www.w3.org/1999/xlink" x="0px" y="0px"
	 viewBox="0 0 30 30" style="enable-background:new 0 0 30 30;" xml:space="preserve">
<style type="text/css">
	.st0{fill:none;}
	.st1{fill:none;stroke:#631617;stroke-width:1.1;stroke-miterlimit:10;}
</style>
<g id="Microphone_Hover">
	<g id="b" transform="translate(1 1)">
		<g id="c">
			<path id="Path_1402" class="st0" d="M0,0v28h28V0L0,0z M26.2,26.2H1.8V1.8h24.5V26.2z"/>
		</g>
		<g id="d" transform="translate(6.992 2.374)">
			<g id="Group_14312">
				<path id="Path_1403" class="st1" d="M11.5,9.5V2.9C11.6,0.3,9.6-1.9,7-2C4.4-1.9,2.4,0.3,2.5,2.9v6.6c-0.1,2.6,1.9,4.8,4.5,4.9
					C9.6,14.3,11.6,12.1,11.5,9.5z"/>
				<path id="Path_1404" class="st1" d="M0,7.4v3.9c0,4.4,3.1,7.9,7,7.9s7-3.5,7-7.9V7.4"/>
				<line id="Line_115" class="st1" x1="7" y1="19.1" x2="7" y2="23.9"/>
			</g>
		</g>
	</g>
</g>
</svg>
