<?xml version="1.0" encoding="utf-8"?>
<!-- Generator: Adobe Illustrator 26.2.1, SVG Export Plug-In . SVG Version: 6.00 Build 0)  -->
<svg version="1.1" id="Component_217_1" xmlns="http://www.w3.org/2000/svg" xmlns:xlink="http://www.w3.org/1999/xlink" x="0px"
	 y="0px" viewBox="0 0 27 27" style="enable-background:new 0 0 27 27;" xml:space="preserve">
<style type="text/css">
	.st0{fill:#FFFFFF;stroke-width:1.2px;}
	.st1{fill:none;}
	.st2{fill:#832729;stroke-width:1.2px;}
	.st3{opacity:0.8;}
	.st4{fill:none;stroke:#832729;stroke-width:1;stroke-miterlimit:10;}
	.st5{fill:none;stroke:#832729;stroke-width:1;stroke-linejoin:round;}
	.st6{fill:none;stroke:#832729;stroke-width:1;}
</style>
<g>
	<circle id="Ellipse_12" class="st0" cx="13.3" cy="13.5" r="12"/>
	<path id="Path_253" class="st1" d="M0,0h27v27H0V0z"/>
	<g id="Path_438" transform="translate(3.77 4.011)">
		<path class="st1" d="M9.5,0C14.8,0,19,4.3,19,9.5c0,5.2-4.3,9.5-9.5,9.5C4.2,19,0,14.7,0,9.5C0,4.2,4.3,0,9.5,0z"/>
		<path class="st2" d="M9.5,0.5c-5,0-9,4-9,9s4,9,9,9s9-4,9-9S14.5,0.5,9.5,0.5 M9.5,0C14.8,0,19,4.2,19,9.5S14.8,19,9.5,19
			S0,14.7,0,9.5S4.3,0,9.5,0z"/>
	</g>
	<g id="b" transform="translate(5.242 5.45)">
		<g id="c" transform="translate(0.05 0.05)">
			<g id="Group_14346" class="st3">
				<path id="Path_1440" class="st1" d="M0,0v16h16V0H0z M15,15H1V1h14L15,15z"/>
			</g>
		</g>
		<g id="b-2">
			<g id="c-2" transform="translate(0.05 0.05)">
				<g id="Group_14347" class="st3">
					<path id="Path_1445" class="st1" d="M0,0v16h16V0H0z M15,15H1V1h14L15,15z"/>
				</g>
			</g>
			<g id="d" transform="translate(0.894 2.67)">
				<path id="Path_1446" class="st4" d="M7.2,8.2C5.7,8.2,4.5,7,4.5,5.5s1.2-2.7,2.7-2.7S9.8,4,9.8,5.5c0,0,0,0,0,0
					C9.8,7,8.6,8.2,7.2,8.2z"/>
				<path id="Path_1447" class="st5" d="M13,2v7.4c0,0.1-0.1,0.2-0.2,0.2c0,0,0,0,0,0H1.6c-0.1,0-0.2-0.1-0.3-0.2c0,0,0,0,0,0V2
					c0-0.1,0.1-0.2,0.3-0.2h1.8l1.1-1.6H10l1,1.6h1.8C12.9,1.8,13,1.9,13,2z"/>
				<g id="Rectangle_9948" transform="translate(10.99 3.002)">
					<rect x="0" y="0" class="st0" width="1" height="1"/>
					<polygon class="st6" points="0.5,0.5 0.5,0.5 0.5,0.5 					"/>
				</g>
			</g>
		</g>
	</g>
</g>
</svg>
