<svg id="Layer_1" data-name="Layer 1" xmlns="http://www.w3.org/2000/svg" viewBox="0 0 20 20"><defs><style>.cls-1{fill:#84282a;}</style></defs><path class="cls-1" d="M10.48,3.13A7.36,7.36,0,1,0,17.35,10,7.37,7.37,0,0,0,10.48,3.13ZM9.65,4v6.39a.16.16,0,0,1-.06.13L5,14.55a.19.19,0,0,1-.26,0A6.66,6.66,0,0,1,9.46,3.84.18.18,0,0,1,9.65,4Zm.7,0a.18.18,0,0,1,.19-.18A6.66,6.66,0,0,1,15.4,14.38a.34.34,0,0,1-.5,0l-4.49-3.89a.16.16,0,0,1-.06-.13Zm-.7,7.79v5.13a.19.19,0,0,1-.19.18,6.6,6.6,0,0,1-4-1.79.17.17,0,0,1,0-.26l3.92-3.39A.17.17,0,0,1,9.65,11.81Zm1-.13,3.92,3.39a.17.17,0,0,1,0,.26,6.63,6.63,0,0,1-4.21,1.8V11.81A.17.17,0,0,1,10.64,11.68Z"/></svg>