<svg id="Layer_1" data-name="Layer 1" xmlns="http://www.w3.org/2000/svg" viewBox="0 0 20 20"><defs><style>.cls-1{fill:#84282a;stroke:#84282a;stroke-miterlimit:10;stroke-width:0.09px;}</style></defs><path class="cls-1" d="M17.19,4.71h-5a1.58,1.58,0,0,0,.42-.88,1.09,1.09,0,0,0,0-.18A1.57,1.57,0,0,0,11,2.09a1.59,1.59,0,0,0-1.39.81,1.43,1.43,0,0,0-1.15-.57A1.45,1.45,0,0,0,7,3.77a1.43,1.43,0,0,0,.36.94H2.61A.67.67,0,0,0,2,5.37V6.68a.86.86,0,0,0,.86.85h0a.2.2,0,0,1,.2.2v8.71a1,1,0,0,0,1,.95H16a1,1,0,0,0,1-.95V7.73a.2.2,0,0,1,.2-.2h0a.86.86,0,0,0,.86-.85V5.56A.86.86,0,0,0,17.19,4.71ZM11,2.57a1.08,1.08,0,0,1,.2,2.14H9.92V3.65A1.08,1.08,0,0,1,11,2.57ZM7.5,3.77a1,1,0,0,1,1.93,0v.94H8.27A1,1,0,0,1,7.5,3.77ZM9.08,16.69a.2.2,0,0,1-.2.2H3.77a.26.26,0,0,1-.25-.26V7.73a.2.2,0,0,1,.2-.2H8.88a.2.2,0,0,1,.2.2Zm1.33,0a.2.2,0,0,1-.2.2H9.79a.2.2,0,0,1-.2-.2v-9a.2.2,0,0,1,.2-.2h.42a.2.2,0,0,1,.2.2Zm6.07-.06a.26.26,0,0,1-.25.26l-5.11-.05a.2.2,0,0,1-.2-.2V7.69a.19.19,0,0,1,.2-.2l5.16,0a.2.2,0,0,1,.2.2Zm1.06-9.95a.35.35,0,0,1-.35.34H2.81a.35.35,0,0,1-.35-.34V5.36a.15.15,0,0,1,.15-.15H17.39a.15.15,0,0,1,.15.15Z"/></svg>